<svg width="40" height="40" viewBox="0 0 40 40" fill="none" xmlns="http://www.w3.org/2000/svg">
<rect width="40" height="40" rx="20" fill="#262626"/>
<g clip-path="url(#clip0_627_1930)">
<path d="M25.2501 14.7583C24.9251 14.4333 24.4001 14.4333 24.0751 14.7583L20.0001 18.825L15.9251 14.75C15.6001 14.425 15.0751 14.425 14.7501 14.75C14.4251 15.075 14.4251 15.6 14.7501 15.925L18.8251 20L14.7501 24.075C14.4251 24.4 14.4251 24.925 14.7501 25.25C15.0751 25.575 15.6001 25.575 15.9251 25.25L20.0001 21.175L24.0751 25.25C24.4001 25.575 24.9251 25.575 25.2501 25.25C25.5751 24.925 25.5751 24.4 25.2501 24.075L21.1751 20L25.2501 15.925C25.5668 15.6083 25.5668 15.075 25.2501 14.7583Z" fill="#898989"/>
</g>
<defs>
<clipPath id="clip0_627_1930">
<rect width="20" height="20" fill="white" transform="translate(10 10)"/>
</clipPath>
</defs>
</svg>
