<svg width="24" height="24" viewBox="0 0 24 24" fill="none" xmlns="http://www.w3.org/2000/svg">
<path d="M12.75 15.92H13.4C14.05 15.92 14.59 15.34 14.59 14.64C14.59 13.77 14.28 13.6 13.77 13.42L12.76 13.07V15.92H12.75Z" fill="#898989"/>
<path d="M11.97 1.9C6.45001 1.92 1.98001 6.41 2.00001 11.93C2.02001 17.45 6.51001 21.92 12.03 21.9C17.55 21.88 22.02 17.39 22 11.87C21.98 6.35 17.49 1.89 11.97 1.9ZM14.26 12C15.04 12.27 16.09 12.85 16.09 14.64C16.09 16.18 14.88 17.42 13.4 17.42H12.75V18C12.75 18.41 12.41 18.75 12 18.75C11.59 18.75 11.25 18.41 11.25 18V17.42H10.89C9.25001 17.42 7.92001 16.04 7.92001 14.34C7.92001 13.93 8.26001 13.59 8.67001 13.59C9.08001 13.59 9.42001 13.93 9.42001 14.34C9.42001 15.21 10.08 15.92 10.89 15.92H11.25V12.54L9.74001 12C8.96001 11.73 7.91001 11.15 7.91001 9.36C7.91001 7.82 9.12001 6.58 10.6 6.58H11.25V6C11.25 5.59 11.59 5.25 12 5.25C12.41 5.25 12.75 5.59 12.75 6V6.58L13.11 6.58C14.75 6.58 16.08 7.96 16.08 9.66C16.08 10.07 15.74 10.41 15.33 10.41C14.92 10.41 14.58 10.07 14.58 9.66C14.58 8.79 13.92 8.08 13.11 8.08H12.75V11.46L14.26 12Z" fill="#898989"/>
<path d="M9.41998 9.37C9.41998 10.24 9.72998 10.41 10.24 10.59L11.25 10.94V8.08H10.6C9.94998 8.08 9.41998 8.66 9.41998 9.37Z" fill="#898989"/>
</svg>
